<?xml version="1.0" encoding="UTF-8" standalone="no"?>
<svg width="199px" height="103px" viewBox="0 0 199 103" version="1.1" xmlns="http://www.w3.org/2000/svg" xmlns:xlink="http://www.w3.org/1999/xlink">
    <!-- Generator: Sketch 3.6.1 (26313) - http://www.bohemiancoding.com/sketch -->
    <title>Group 12</title>
    <desc>Created with Sketch.</desc>
    <defs></defs>
    <g id="Page-1" stroke="none" stroke-width="1" fill="none" fill-rule="evenodd">
        <g id="Group-12" transform="translate(0.000000, -1.000000)">
            <path d="M10.6506696,63.4551521 C6.44623685,62.9898106 2.03316415,69.9723662 6.23747189,72.7519164 C10.4417796,75.5314667 38.038708,76.7577096 36.6299403,67.9227297 C35.2211726,59.0877498 10.4803446,63.6980601 7.6809045,62.7650592" id="Path-7" stroke="#ECC37B" stroke-width="0.5" fill="#2B2936"></path>
            <path d="M10.6506696,63.4551521 C6.44623685,62.9898106 2.03316415,69.9723662 6.23747189,72.7519164 C10.4417796,75.5314667 38.038708,76.7577096 36.6299403,67.9227297 C35.2211726,59.0877498 10.4803446,63.6980601 7.6809045,62.7650592" id="Path-7" stroke="#ECC37B" stroke-width="0.5" fill="#2B2936"></path>
            <g id="circle-scss" transform="translate(44.000000, 78.000000)">
                <g id="Group-3">
                    <g id="Page-1">
                        <g id="Group-3">
                            <path d="M6.6506696,1.45515209 C2.44623685,0.989810636 -1.96683585,7.97236617 2.23747189,10.7519164 C6.44177963,13.5314667 11.4870984,9.41721849 10.3845338,5.18824369 C9.28196912,0.959268888 6.48034457,1.69806015 3.6809045,0.765059192" id="Path-7" stroke="#9DC85E" stroke-width="0.5" fill="#2B2936"></path>
                            <text id="css" fill="#9DC85E" font-family="Helvetica" font-size="4" font-weight="normal">
                                <tspan x="2.42648436" y="8" fill="#000000">css</tspan>
                            </text>
                        </g>
                    </g>
                </g>
            </g>
            <g id="Group-5" transform="translate(0.000000, 89.000000)">
                <path d="M6.6506696,1.45515209 C2.44623685,0.989810636 -1.96683585,7.97236617 2.23747189,10.7519164 C6.44177963,13.5314667 11.4870984,9.41721849 10.3845338,5.18824369 C9.28196912,0.959268888 6.48034457,1.69806015 3.6809045,0.765059192" id="Path-7" stroke="#DAB564" stroke-width="0.5" fill="#2B2936"></path>
                <text id="js" fill="#DAB564" font-family="Helvetica" font-size="4" font-weight="normal">
                    <tspan x="4.42648436" y="8" fill="#000000">js</tspan>
                </text>
            </g>
            <g id="Group-5" transform="translate(11.000000, 78.000000)">
                <path d="M6.6506696,1.45515209 C2.44623685,0.989810636 -1.96683585,7.97236617 2.23747189,10.7519164 C6.44177963,13.5314667 11.4870984,9.41721849 10.3845338,5.18824369 C9.28196912,0.959268888 6.48034457,1.69806015 3.6809045,0.765059192" id="Path-7" stroke="#DAB564" stroke-width="0.5" fill="#2B2936"></path>
                <text id="js" fill="#DAB564" font-family="Helvetica" font-size="4" font-weight="normal">
                    <tspan x="4.42648436" y="8" fill="#000000">js</tspan>
                </text>
            </g>
            <g id="circle-scss" transform="translate(22.000000, 89.000000)">
                <g id="Group-3">
                    <g id="Page-1">
                        <g id="Group-3">
                            <path d="M6.6506696,1.45515209 C2.44623685,0.989810636 -1.96683585,7.97236617 2.23747189,10.7519164 C6.44177963,13.5314667 11.4870984,9.41721849 10.3845338,5.18824369 C9.28196912,0.959268888 6.48034457,1.69806015 3.6809045,0.765059192" id="Path-7" stroke="#9DC85E" stroke-width="0.5" fill="#2B2936"></path>
                            <text id="css" fill="#9DC85E" font-family="Helvetica" font-size="4" font-weight="normal">
                                <tspan x="2.42648436" y="8" fill="#000000">css</tspan>
                            </text>
                        </g>
                    </g>
                </g>
            </g>
            <g id="Group-5" transform="translate(74.000000, 77.000000)">
                <path d="M6.6506696,1.45515209 C2.44623685,0.989810636 -1.96683585,7.97236617 2.23747189,10.7519164 C6.44177963,13.5314667 11.4870984,9.41721849 10.3845338,5.18824369 C9.28196912,0.959268888 6.48034457,1.69806015 3.6809045,0.765059192" id="Path-7" stroke="#DAB564" stroke-width="0.5" fill="#2B2936"></path>
                <text id="js" fill="#DAB564" font-family="Helvetica" font-size="4" font-weight="normal">
                    <tspan x="4.42648436" y="8" fill="#000000">js</tspan>
                </text>
            </g>
            <g id="circle-scss" transform="translate(88.000000, 78.000000)">
                <g id="Group-3">
                    <g id="Page-1">
                        <g id="Group-3">
                            <path d="M6.6506696,1.45515209 C2.44623685,0.989810636 -1.96683585,7.97236617 2.23747189,10.7519164 C6.44177963,13.5314667 11.4870984,9.41721849 10.3845338,5.18824369 C9.28196912,0.959268888 6.48034457,1.69806015 3.6809045,0.765059192" id="Path-7" stroke="#9DC85E" stroke-width="0.5" fill="#2B2936"></path>
                            <text id="css" fill="#9DC85E" font-family="Helvetica" font-size="4" font-weight="normal">
                                <tspan x="2.42648436" y="8" fill="#000000">css</tspan>
                            </text>
                        </g>
                    </g>
                </g>
            </g>
            <g id="Group-5" transform="translate(114.000000, 77.000000)">
                <path d="M6.6506696,1.45515209 C2.44623685,0.989810636 -1.96683585,7.97236617 2.23747189,10.7519164 C6.44177963,13.5314667 11.4870984,9.41721849 10.3845338,5.18824369 C9.28196912,0.959268888 6.48034457,1.69806015 3.6809045,0.765059192" id="Path-7" stroke="#DAB564" stroke-width="0.5" fill="#2B2936"></path>
                <text id="js" fill="#DAB564" font-family="Helvetica" font-size="4" font-weight="normal">
                    <tspan x="4.42648436" y="8" fill="#000000">js</tspan>
                </text>
            </g>
            <g id="Group-5" transform="translate(51.000000, 92.000000)">
                <path d="M6.6506696,1.45515209 C2.44623685,0.989810636 -1.96683585,7.97236617 2.23747189,10.7519164 C6.44177963,13.5314667 11.4870984,9.41721849 10.3845338,5.18824369 C9.28196912,0.959268888 6.48034457,1.69806015 3.6809045,0.765059192" id="Path-7" stroke="#DAB564" stroke-width="0.5" fill="#2B2936"></path>
                <text id="js" fill="#DAB564" font-family="Helvetica" font-size="4" font-weight="normal">
                    <tspan x="4.42648436" y="8" fill="#000000">js</tspan>
                </text>
            </g>
            <g id="circle-scss" transform="translate(130.000000, 77.000000)">
                <g id="Group-3">
                    <g id="Page-1">
                        <g id="Group-3">
                            <path d="M6.6506696,1.45515209 C2.44623685,0.989810636 -1.96683585,7.97236617 2.23747189,10.7519164 C6.44177963,13.5314667 11.4870984,9.41721849 10.3845338,5.18824369 C9.28196912,0.959268888 6.48034457,1.69806015 3.6809045,0.765059192" id="Path-7" stroke="#9DC85E" stroke-width="0.5" fill="#2B2936"></path>
                            <text id="css" fill="#9DC85E" font-family="Helvetica" font-size="4" font-weight="normal">
                                <tspan x="2.42648436" y="8" fill="#000000">css</tspan>
                            </text>
                        </g>
                    </g>
                </g>
            </g>
            <g id="circle-image" transform="translate(59.000000, 78.000000)">
                <g id="Group-4">
                    <g id="Page-1">
                        <g id="Group-4">
                            <g id="Group-3">
                                <path d="M6.6506696,1.45515209 C2.44623685,0.989810636 -1.96683585,7.97236617 2.23747189,10.7519164 C6.44177963,13.5314667 11.4870984,9.41721849 10.3845338,5.18824369 C9.28196912,0.959268888 6.48034457,1.69806015 3.6809045,0.765059192" id="Path-7" stroke="#A476CD" stroke-width="0.5" fill="#2B2936"></path>
                                <text id="img" fill="#9971BC" font-family="Helvetica" font-size="4" font-weight="normal">
                                    <tspan x="1.81320311" y="8" fill="#000000">img</tspan>
                                </text>
                            </g>
                        </g>
                    </g>
                </g>
            </g>
            <g id="circle-image" transform="translate(123.000000, 90.000000)">
                <g id="Group-4">
                    <g id="Page-1">
                        <g id="Group-4">
                            <g id="Group-3">
                                <path d="M6.6506696,1.45515209 C2.44623685,0.989810636 -1.96683585,7.97236617 2.23747189,10.7519164 C6.44177963,13.5314667 11.4870984,9.41721849 10.3845338,5.18824369 C9.28196912,0.959268888 6.48034457,1.69806015 3.6809045,0.765059192" id="Path-7" stroke="#A476CD" stroke-width="0.5" fill="#2B2936"></path>
                                <text id="img" fill="#9971BC" font-family="Helvetica" font-size="4" font-weight="normal">
                                    <tspan x="1.81320311" y="8" fill="#000000">img</tspan>
                                </text>
                            </g>
                        </g>
                    </g>
                </g>
            </g>
            <text id="Homepage" font-family="FiraMono-Medium, Fira Mono" font-size="5" font-weight="400" fill="#ECC37B">
                <tspan x="8" y="70">Homepage</tspan>
            </text>
            <g id="Group-7" transform="translate(26.000000, 23.000000)">
                <path d="M9.50786676,1.07815962 C2.96781551,0.612818169 -3.89677797,7.5953737 2.64307883,10.3749239 C9.18293563,13.1544742 52.1103261,14.3807172 49.9189691,5.54573722 C47.7276121,-3.2892427 9.2429239,1.32106768 4.88835752,0.388066725" id="Path-7" stroke="#9ED3D1" stroke-width="0.5" fill="#2B2936"></path>
                <path d="M9.50786676,1.07815962 C2.96781551,0.612818169 -3.89677797,7.5953737 2.64307883,10.3749239 C9.18293563,13.1544742 52.1103261,14.3807172 49.9189691,5.54573722 C47.7276121,-3.2892427 9.2429239,1.32106768 4.88835752,0.388066725" id="Path-7" stroke="#9ED3D1" stroke-width="0.5" fill="#2B2936"></path>
                <text id="Shopping-flow" font-family="FiraMono-Medium, Fira Mono" font-size="5" font-weight="400" fill="#99CCC9">
                    <tspan x="7" y="8">Shopping flow</tspan>
                </text>
            </g>
            <path d="M43.4686366,64.0781596 C39.2642038,63.6128182 34.8511311,70.5953737 39.0554388,73.3749239 C43.2597466,76.1544742 70.856675,77.3807172 69.4479073,68.5457372 C68.0391396,59.7107573 43.2983115,64.3210677 40.4988715,63.3880667" id="Path-7" stroke="#ECC37B" stroke-width="0.5" fill="#2B2936"></path>
            <text id="Product" font-family="FiraMono-Medium, Fira Mono" font-size="5" font-weight="400" fill="#ECC37B">
                <tspan x="43" y="71">Product</tspan>
            </text>
            <path d="M77.1123659,63.0781596 C72.9079332,62.6128182 68.4948605,69.5953737 72.6991682,72.3749239 C76.9034759,75.1544742 104.500404,76.3807172 103.091637,67.5457372 C101.682869,58.7107573 76.9420409,63.3210677 74.1426008,62.3880667" id="Path-7" stroke="#ECC37B" stroke-width="0.5" fill="#2B2936"></path>
            <text id="Listing" font-family="FiraMono-Medium, Fira Mono" font-size="5" font-weight="400" fill="#ECC37B">
                <tspan x="77" y="70">Listing</tspan>
            </text>
            <g id="Group-10" transform="translate(108.000000, 61.000000)">
                <path d="M6.46863656,1.07815962 C2.26420381,0.612818169 -2.14886889,7.5953737 2.05543885,10.3749239 C6.25974659,13.1544742 33.856675,14.3807172 32.4479073,5.54573722 C31.0391396,-3.2892427 6.29831153,1.32106768 3.49887146,0.388066725" id="Path-7" stroke="#ECC37B" stroke-width="0.5" fill="#2B2936"></path>
                <text id="Login" font-family="FiraMono-Medium, Fira Mono" font-size="5" font-weight="400" fill="#ECC37B">
                    <tspan x="10" y="7">Login</tspan>
                </text>
            </g>
            <g id="Group-5" transform="translate(171.000000, 77.000000)">
                <path d="M6.6506696,1.45515209 C2.44623685,0.989810636 -1.96683585,7.97236617 2.23747189,10.7519164 C6.44177963,13.5314667 11.4870984,9.41721849 10.3845338,5.18824369 C9.28196912,0.959268888 6.48034457,1.69806015 3.6809045,0.765059192" id="Path-7" stroke="#DAB564" stroke-width="0.5" fill="#2B2936"></path>
                <text id="js" fill="#DAB564" font-family="Helvetica" font-size="4" font-weight="normal">
                    <tspan x="4.42648436" y="8" fill="#000000">js</tspan>
                </text>
            </g>
            <g id="circle-scss" transform="translate(187.000000, 77.000000)">
                <g id="Group-3">
                    <g id="Page-1">
                        <g id="Group-3">
                            <path d="M6.6506696,1.45515209 C2.44623685,0.989810636 -1.96683585,7.97236617 2.23747189,10.7519164 C6.44177963,13.5314667 11.4870984,9.41721849 10.3845338,5.18824369 C9.28196912,0.959268888 6.48034457,1.69806015 3.6809045,0.765059192" id="Path-7" stroke="#9DC85E" stroke-width="0.5" fill="#2B2936"></path>
                            <text id="css" fill="#9DC85E" font-family="Helvetica" font-size="4" font-weight="normal">
                                <tspan x="2.42648436" y="8" fill="#000000">css</tspan>
                            </text>
                        </g>
                    </g>
                </g>
            </g>
            <g id="circle-image" transform="translate(180.000000, 90.000000)">
                <g id="Group-4">
                    <g id="Page-1">
                        <g id="Group-4">
                            <g id="Group-3">
                                <path d="M6.6506696,1.45515209 C2.44623685,0.989810636 -1.96683585,7.97236617 2.23747189,10.7519164 C6.44177963,13.5314667 11.4870984,9.41721849 10.3845338,5.18824369 C9.28196912,0.959268888 6.48034457,1.69806015 3.6809045,0.765059192" id="Path-7" stroke="#A476CD" stroke-width="0.5" fill="#2B2936"></path>
                                <text id="img" fill="#9971BC" font-family="Helvetica" font-size="4" font-weight="normal">
                                    <tspan x="1.81320311" y="8" fill="#000000">img</tspan>
                                </text>
                            </g>
                        </g>
                    </g>
                </g>
            </g>
            <path d="M172.112366,63.0781596 C167.907933,62.6128182 163.49486,69.5953737 167.699168,72.3749239 C171.903476,75.1544742 199.500404,76.3807172 198.091637,67.5457372 C196.682869,58.7107573 171.942041,63.3210677 169.142601,62.3880667" id="Path-7" stroke="#ECC37B" stroke-width="0.5" fill="#2B2936"></path>
            <text id="Signup" font-family="FiraMono-Medium, Fira Mono" font-size="5" font-weight="400" fill="#ECC37B">
                <tspan x="174" y="70">Signup</tspan>
            </text>
            <path d="M23.5,59.5 L39,38" id="Line" stroke="#ECC37B" stroke-width="0.5" stroke-linecap="square"></path>
            <path d="M91,60 L65,38" id="Line" stroke="#ECC37B" stroke-width="0.5" stroke-linecap="square"></path>
            <path d="M55,61 L53,38" id="Line" stroke="#ECC37B" stroke-width="0.5" stroke-linecap="square"></path>
            <path d="M119,59 L132,39" id="Line" stroke="#ECC37B" stroke-width="0.5" stroke-linecap="square"></path>
            <path d="M178,59 L147,37" id="Line" stroke="#ECC37B" stroke-width="0.5" stroke-linecap="square"></path>
            <g id="Group-9" transform="translate(44.000000, 1.000000)">
                <text id="Entry" font-family="FiraMono-Medium, Fira Mono" font-size="5" font-weight="400" fill="#55B7D7">
                    <tspan x="0" y="5">Entry</tspan>
                </text>
                <g id="Group-8" transform="translate(1.000000, 6.000000)" stroke="#55B7D7">
                    <path d="M5,16 L5,13" id="Line" stroke-width="0.5" stroke-linecap="square"></path>
                    <g id="circle-entry">
                        <g id="Group-4">
                            <g id="Page-1">
                                <g id="Group-4">
                                    <path d="M6.6506696,1.45515209 C2.44623685,0.989810636 -1.96683585,7.97236617 2.23747189,10.7519164 C6.44177963,13.5314667 11.4870984,9.41721849 10.3845338,5.18824369 C9.28196912,0.959268888 6.48034457,1.69806015 3.6809045,0.765059192" id="Path-7" fill="#2B2936"></path>
                                    <g id="Group-3" transform="translate(3.000000, 4.000000)">
                                        <path d="M0.0838523414,0.741372668 C0.0838523414,0.741372668 3.11581412,2.27458495 4.83268183,4.85280519" id="Path-14"></path>
                                        <path d="M4.85832559,0.196138985 C4.8424827,0.214056699 1.3487798,3.57676579 0.288056003,4.7764046" id="Path-15"></path>
                                    </g>
                                </g>
                            </g>
                        </g>
                    </g>
                </g>
            </g>
            <g id="Group-11" transform="translate(113.000000, 0.000000)">
                <g id="Group-7" transform="translate(0.000000, 22.000000)">
                    <path d="M9.50786676,1.07815962 C2.96781551,0.612818169 -3.89677797,7.5953737 2.64307883,10.3749239 C9.18293563,13.1544742 52.1103261,14.3807172 49.9189691,5.54573722 C47.7276121,-3.2892427 9.2429239,1.32106768 4.88835752,0.388066725" id="Path-7" stroke="#9ED3D1" stroke-width="0.5" fill="#2B2936"></path>
                    <path d="M9.50786676,1.07815962 C2.96781551,0.612818169 -3.89677797,7.5953737 2.64307883,10.3749239 C9.18293563,13.1544742 52.1103261,14.3807172 49.9189691,5.54573722 C47.7276121,-3.2892427 9.2429239,1.32106768 4.88835752,0.388066725" id="Path-7" stroke="#9ED3D1" stroke-width="0.5" fill="#2B2936"></path>
                    <text id="Shopping-flow" font-family="FiraMono-Medium, Fira Mono" font-size="5" font-weight="400" fill="#99CCC9">
                        <tspan x="7" y="8">Shopping flow</tspan>
                    </text>
                </g>
                <g id="Group-9" transform="translate(16.000000, 0.000000)">
                    <text id="Entry" font-family="FiraMono-Medium, Fira Mono" font-size="5" font-weight="400" fill="#55B7D7">
                        <tspan x="0" y="5">Entry</tspan>
                    </text>
                    <g id="Group-8" transform="translate(1.000000, 6.000000)" stroke="#55B7D7">
                        <path d="M5,16 L5,13" id="Line" stroke-width="0.5" stroke-linecap="square"></path>
                        <g id="circle-entry">
                            <g id="Group-4">
                                <g id="Page-1">
                                    <g id="Group-4">
                                        <path d="M6.6506696,1.45515209 C2.44623685,0.989810636 -1.96683585,7.97236617 2.23747189,10.7519164 C6.44177963,13.5314667 11.4870984,9.41721849 10.3845338,5.18824369 C9.28196912,0.959268888 6.48034457,1.69806015 3.6809045,0.765059192" id="Path-7" fill="#2B2936"></path>
                                        <g id="Group-3" transform="translate(3.000000, 4.000000)">
                                            <path d="M0.0838523414,0.741372668 C0.0838523414,0.741372668 3.11581412,2.27458495 4.83268183,4.85280519" id="Path-14"></path>
                                            <path d="M4.85832559,0.196138985 C4.8424827,0.214056699 1.3487798,3.57676579 0.288056003,4.7764046" id="Path-15"></path>
                                        </g>
                                    </g>
                                </g>
                            </g>
                        </g>
                    </g>
                </g>
            </g>
        </g>
    </g>
</svg>